<?xml version="1.0" encoding="UTF-8" standalone="no"?>
<!-- Created with Inkscape (http://www.inkscape.org/) -->

<svg
   width="155.82634mm"
   height="168.6035mm"
   viewBox="0 0 155.82634 168.6035"
   version="1.1"
   id="svg5"
   inkscape:version="1.1.1 (3bf5ae0d25, 2021-09-20)"
   sodipodi:docname="logo.svg"
   xmlns:inkscape="http://www.inkscape.org/namespaces/inkscape"
   xmlns:sodipodi="http://sodipodi.sourceforge.net/DTD/sodipodi-0.dtd"
   xmlns="http://www.w3.org/2000/svg"
   xmlns:svg="http://www.w3.org/2000/svg">
  <sodipodi:namedview
     id="namedview7"
     pagecolor="#ffffff"
     bordercolor="#cccccc"
     borderopacity="1"
     inkscape:pageshadow="0"
     inkscape:pageopacity="1"
     inkscape:pagecheckerboard="0"
     inkscape:document-units="mm"
     showgrid="false"
     inkscape:zoom="0.66368547"
     inkscape:cx="400.03889"
     inkscape:cy="463.32188"
     inkscape:window-width="1920"
     inkscape:window-height="1017"
     inkscape:window-x="1912"
     inkscape:window-y="-8"
     inkscape:window-maximized="1"
     inkscape:current-layer="layer1" />
  <defs
     id="defs2" />
  <g
     inkscape:label="Layer 1"
     inkscape:groupmode="layer"
     id="layer1"
     transform="translate(-29.325756,-38.086167)">
    <path
       sodipodi:type="star"
       style="fill:#ff9955;stroke:#ff9955;stroke-width:183.942;stroke-linejoin:round;stroke-miterlimit:4;stroke-dasharray:none;paint-order:stroke markers fill"
       id="path972"
       inkscape:flatsided="true"
       sodipodi:sides="6"
       sodipodi:cx="284.77344"
       sodipodi:cy="336.00253"
       sodipodi:r1="311.57065"
       sodipodi:r2="269.82809"
       sodipodi:arg1="1.5707963"
       sodipodi:arg2="2.0943951"
       inkscape:rounded="0"
       inkscape:randomized="0"
       transform="matrix(0.21534927,0,0,0.20890545,45.913176,52.195159)"
       inkscape:transform-center-x="-2.4996439e-06"
       d="M 284.77345,647.57318 14.945345,491.78786 14.945337,180.21722 284.77343,24.431885 554.60153,180.2172 l 10e-6,311.57065 z" />
    <path
       style="fill:#ffffff;stroke-width:26.7881;stroke-linecap:round;stroke-linejoin:round;paint-order:stroke markers fill"
       d="m 227.71326,610.32241 c -0.72098,-0.36224 -1.69566,-1.23458 -2.16593,-1.93854 l -0.85505,-1.27993 v -33.4381 -33.43809 l -6.49781,-0.12529 c -7.32353,-0.14121 -8.41601,-0.47117 -9.76873,-2.95042 -0.61781,-1.13232 -0.70357,-1.96599 -0.60763,-5.90666 0.12491,-5.13039 0.47853,-6.0115 2.94309,-7.33326 1.22092,-0.65478 2.57843,-0.69737 22.21226,-0.69682 23.31095,6.5e-4 22.60337,-0.0747 24.38869,2.59774 0.77158,1.15498 0.85491,1.72494 0.85364,5.83861 -0.002,5.36434 -0.48975,6.58284 -3.11402,7.77412 -1.35861,0.61674 -2.49421,0.72442 -7.71425,0.73147 l -6.12112,0.008 v 33.46922 33.46921 l -0.85505,1.27993 c -1.38504,2.07328 -2.88416,2.59715 -7.43201,2.59715 -3.01456,0 -4.26695,-0.15663 -5.26608,-0.65861 z"
       id="path898"
       transform="scale(0.26458333)" />
    <path
       style="fill:#ffffff;stroke-width:26.7881;stroke-linecap:round;stroke-linejoin:round;paint-order:stroke markers fill"
       d="m 296.1815,610.42321 c -15.71989,-2.56805 -29.22471,-14.00428 -34.34894,-29.08757 -3.071,-9.03958 -3.06065,-19.88528 0.0272,-28.48038 8.99757,-25.04498 37.09374,-36.60723 60.58214,-24.93102 8.98256,4.46527 15.49803,10.98075 19.9633,19.9633 11.69378,23.52373 -0.37507,52.48754 -25.34036,60.8139 -6.14218,2.04851 -14.60974,2.74665 -20.88334,1.72177 z m 13.78339,-17.13331 c 7.32463,-1.87333 13.94828,-7.17624 17.27646,-13.83157 2.38748,-4.77422 3.07544,-8.10212 2.81909,-13.6368 -0.14148,-3.05445 -0.4508,-5.11174 -1.0257,-6.82179 -2.87227,-8.5437 -9.16134,-14.83277 -17.70504,-17.70504 -3.50023,-1.17673 -10.1846,-1.45308 -14.09643,-0.58278 -7.53972,1.67743 -14.57783,7.15809 -18.01264,14.02665 -2.36625,4.73177 -3.05929,8.05555 -2.83937,13.61748 0.13739,3.47483 0.38816,5.02233 1.20013,7.40614 2.87195,8.4316 10.19498,15.26405 18.76739,17.51014 3.79364,0.99399 9.76818,1.0017 13.61611,0.0176 z"
       id="path937"
       transform="scale(0.26458333)" />
    <path
       style="fill:#ffffff;stroke-width:26.7881;stroke-linecap:round;stroke-linejoin:round;paint-order:stroke markers fill"
       d="m 354.26586,610.29512 c -0.81548,-0.42688 -1.63348,-1.31299 -2.16006,-2.33992 l -0.84754,-1.65285 0.008,-39.18954 c 0.008,-37.70891 0.0353,-39.24919 0.72506,-40.76835 1.33331,-2.9368 5.32516,-3.99158 7.8978,-2.08688 0.53588,0.39675 8.60218,10.48796 17.92512,22.42492 9.32294,11.93695 17.12031,21.70259 17.32749,21.70141 0.20717,-10e-4 8.00454,-9.76857 17.32748,-21.70531 9.32294,-11.93674 17.38925,-22.02698 17.92513,-22.42277 2.57559,-1.90227 6.56489,-0.84727 7.8978,2.08863 0.6897,1.51916 0.7171,3.05944 0.72505,40.76835 l 0.008,39.18954 -0.84754,1.65285 c -1.28458,2.50514 -2.59963,3.02699 -7.62787,3.02699 -4.76773,0 -6.26619,-0.53294 -7.53369,-2.67939 -0.72491,-1.22759 -0.76049,-2.13333 -0.94171,-23.97413 l -0.18835,-22.69834 -11.58394,14.84159 c -10.06983,12.90168 -11.78177,14.92075 -13.09741,15.44717 -1.91182,0.76495 -2.46341,0.75161 -4.32335,-0.10459 -1.25301,-0.57681 -3.44142,-3.17389 -12.99561,-15.42239 -6.31889,-8.10083 -11.61601,-14.73481 -11.77139,-14.74218 -0.15539,-0.007 -0.28252,10.31358 -0.28252,22.93545 v 22.94885 l -0.98658,1.17248 c -1.63566,1.94388 -2.68394,2.27548 -7.19347,2.27548 -3.21206,0 -4.35162,-0.14536 -5.38646,-0.68707 z"
       id="path976"
       transform="scale(0.26458333)" />
    <path
       style="fill:#ffffff;stroke-width:26.7881;stroke-linecap:round;stroke-linejoin:round;paint-order:stroke markers fill"
       d="m 447.6836,610.28378 c -0.72188,-0.38413 -1.69112,-1.3588 -2.15386,-2.16593 l -0.84134,-1.46753 -0.006,-39.37788 -0.006,-39.37788 0.84754,-1.65286 c 1.09093,-2.12749 2.8724,-3.13592 5.12827,-2.90293 0.90417,0.0934 2.09073,0.50332 2.6368,0.91096 0.54606,0.40765 8.62071,10.50463 17.94365,22.43774 9.32294,11.9331 17.12031,21.69405 17.32748,21.69099 0.20718,-0.003 8.00455,-9.7701 17.32749,-21.70453 9.32294,-11.93442 17.38924,-22.02267 17.92512,-22.41833 2.58066,-1.9054 6.39963,-0.89248 7.83806,2.07892 0.79072,1.6334 0.79307,1.7546 0.79307,40.80304 v 39.16479 l -0.84754,1.65285 c -1.28457,2.50514 -2.59961,3.02699 -7.62786,3.02699 -4.76772,0 -6.26619,-0.53294 -7.53369,-2.67939 -0.7249,-1.22759 -0.76048,-2.13333 -0.94171,-23.97419 l -0.18834,-22.69841 -11.59076,14.84439 c -10.27025,13.15319 -11.77026,14.9162 -13.1663,15.47479 -1.71003,0.68421 -3.57005,0.53652 -4.99409,-0.39654 -0.45355,-0.29718 -5.98016,-7.14321 -12.28134,-15.2134 -6.30119,-8.07019 -11.58004,-14.67979 -11.73079,-14.688 -0.15075,-0.008 -0.32026,10.39625 -0.37669,23.12102 l -0.10259,23.13593 -0.94171,1.02042 c -1.51103,1.63732 -2.97901,2.05338 -7.24496,2.05338 -3.05419,0 -4.15807,-0.1485 -5.19151,-0.69841 z"
       id="path1015"
       transform="scale(0.26458333)" />
    <path
       style="fill:#ffffff;stroke-width:26.7881;stroke-linecap:round;stroke-linejoin:round;paint-order:stroke markers fill"
       d="m 563.32573,610.29512 c -0.81547,-0.42688 -1.63348,-1.31299 -2.16006,-2.33992 -0.82696,-1.61273 -0.84754,-1.9462 -0.84754,-13.73569 v -12.08283 l -12.80727,-25.91784 c -13.9758,-28.28258 -13.75162,-27.71227 -11.95222,-30.4058 1.48246,-2.21912 2.83288,-2.64456 7.99703,-2.51948 4.03214,0.0977 4.65317,0.20432 5.75148,0.9877 1.01005,0.72042 2.86308,4.13725 10.31358,19.01729 l 9.08231,18.13908 8.84104,-17.69889 c 4.86257,-9.73439 9.20539,-18.10213 9.6507,-18.59498 1.3753,-1.52211 2.91553,-1.92905 7.30124,-1.92905 3.23918,0 4.33211,0.142 5.36773,0.69741 1.78761,0.95871 2.69082,2.29559 2.91908,4.32069 0.185,1.64138 -0.35082,2.82033 -12.64541,27.82351 l -12.8386,26.10951 -0.10911,12.49787 c -0.10479,12.00148 -0.14042,12.54007 -0.89712,13.56064 -1.73091,2.33445 -2.8772,2.75785 -7.46647,2.75785 -3.32232,0 -4.45914,-0.142 -5.50039,-0.68707 z"
       id="path1054"
       transform="scale(0.26458333)" />
    <path
       style="fill:#ffffff;stroke-width:26.7881;stroke-linecap:round;stroke-linejoin:round;paint-order:stroke markers fill"
       d="m 418.11975,482.1979 c -8.14724,-0.26198 -9.00036,-0.50591 -11.43248,-3.26894 -2.24881,-2.55479 -2.98778,-6.491 -1.76706,-9.41258 0.48214,-1.15394 9.13425,-12.65985 46.21895,-61.46375 l 8.93776,-11.76221 -26.98988,-35.51169 c -14.84444,-19.53144 -27.37833,-36.26084 -27.85308,-37.17645 -2.29951,-4.43483 -0.01,-10.36155 4.80347,-12.43205 1.84326,-0.79295 2.33888,-0.8243 11.25134,-0.71169 l 9.32314,0.1178 1.81838,1.13005 c 1.5344,0.95357 5.29661,5.6891 24.09062,30.3231 12.24973,16.05617 22.43563,29.11821 22.63532,29.02674 0.1997,-0.0915 10.29204,-13.22833 22.42742,-29.19304 18.74563,-24.66082 22.33893,-29.19672 23.88993,-30.1568 l 1.82558,-1.13005 h 10.01168 10.01168 l 1.77723,1.04471 c 2.22737,1.30933 3.96066,3.79004 4.4901,6.42631 0.83751,4.1703 1.98884,2.45292 -28.26744,42.16495 l -27.48551,36.07534 27.48316,36.05974 c 30.28138,39.73119 29.10732,37.97896 28.26333,42.1815 -0.22795,1.13506 -0.77907,2.6537 -1.22471,3.37476 -0.99651,1.61238 -3.37812,3.38215 -5.18839,3.85548 -0.74498,0.19479 -5.33795,0.40056 -10.20659,0.45726 -10.17769,0.11854 -10.98941,-0.0654 -13.74899,-3.11597 -0.8287,-0.91609 -11.08394,-14.32361 -22.78941,-29.79449 -19.8136,-26.18725 -21.32503,-28.08489 -21.89631,-27.4916 -0.33751,0.35051 -10.06639,13.09613 -21.61974,28.3236 -11.55335,15.22747 -21.6172,28.34283 -22.36411,29.14524 -2.77127,2.97723 -4.56777,3.29602 -16.42539,2.91473 z"
       id="path1093"
       transform="scale(0.26458333)" />
    <path
       style="fill:#ffffff;stroke-width:26.7881;stroke-linecap:round;stroke-linejoin:round;paint-order:stroke markers fill"
       d="m 319.20162,482.13649 c -24.50558,-1.7627 -46.53274,-17.42029 -56.66917,-40.28222 -2.01414,-4.54274 -3.69512,-10.04484 -4.77698,-15.63581 -0.78908,-4.07792 -0.80396,-4.95422 -0.93983,-55.34737 -0.0939,-34.84836 -0.0117,-51.79295 0.25749,-53.04815 0.53181,-2.47974 2.29247,-4.9324 4.45207,-6.20189 l 1.77724,-1.04471 h 8.4754 8.4754 l 1.77723,1.04471 c 1.60927,0.94599 3.36603,2.99076 4.28047,4.98224 0.20159,0.43901 0.43146,22.44362 0.5509,52.73582 l 0.20497,51.98246 0.86064,3.01347 c 4.06197,14.22285 14.99092,24.31653 29.61755,27.35397 1.24306,0.25814 4.46371,0.45514 7.157,0.43777 3.9845,-0.0257 5.59875,-0.21398 8.66375,-1.01056 13.60176,-3.53506 23.47127,-13.35368 27.42154,-27.28012 0.81989,-2.8905 0.82015,-2.90409 1.01329,-54.87367 l 0.19318,-51.98246 1.04429,-1.77649 c 1.17948,-2.00649 2.99254,-3.53451 5.07607,-4.27805 2.15334,-0.76845 15.21692,-0.7298 17.51082,0.0518 2.12873,0.72533 4.27458,2.75208 5.33055,5.0347 0.79542,1.71939 0.79647,1.77673 0.90723,49.18364 0.11573,49.53606 -0.0301,55.85182 -1.44996,62.81943 -1.80182,8.84172 -6.01303,18.58889 -11.18552,25.88976 -2.92116,4.12318 -10.74202,12.15625 -14.59487,14.99091 -10.68199,7.85906 -22.67037,12.29776 -35.81011,13.25871 -2.68049,0.19604 -5.04313,0.33684 -5.25031,0.3129 -0.20718,-0.024 -2.17383,-0.1728 -4.37033,-0.3308 z"
       id="path1132"
       transform="scale(0.26458333)" />
  </g>
</svg>
